<?xml version="1.0" standalone="no"?>
<!DOCTYPE svg PUBLIC "-//W3C//DTD SVG 20010904//EN"
 "http://www.w3.org/TR/2001/REC-SVG-20010904/DTD/svg10.dtd">
<svg version="1.0" xmlns="http://www.w3.org/2000/svg"
 width="300.000000pt" height="300.000000pt" viewBox="0 0 300.000000 300.000000"
 preserveAspectRatio="xMidYMid meet">
<metadata>
Created by potrace 1.11, written by Peter Selinger 2001-2013
</metadata>
<g transform="translate(0.000000,300.000000) scale(0.100000,-0.100000)"
fill="#000000" stroke="none">
<path d="M610 800 l0 -170 60 0 c79 0 100 19 100 92 0 32 -6 58 -15 68 -13 15
-13 20 0 48 20 39 11 97 -18 117 -12 9 -44 15 -74 15 l-53 0 0 -170z m95 75
c0 -34 -3 -40 -22 -43 -21 -3 -23 1 -23 43 0 42 2 46 23 43 19 -3 22 -9 22
-43z m11 -119 c11 -45 1 -71 -28 -74 -27 -3 -28 -2 -28 47 0 48 2 51 25 51 18
0 26 -7 31 -24z"/>
<path d="M835 938 c-13 -77 -45 -289 -45 -298 0 -5 11 -10 25 -10 21 0 25 5
25 30 0 28 3 30 35 30 31 0 36 -3 42 -30 4 -23 11 -30 29 -30 29 0 29 -3 4
157 -32 199 -26 183 -70 183 -36 0 -40 -2 -45 -32z m60 -140 l7 -68 -27 0
c-23 0 -26 3 -22 23 3 12 9 48 13 81 8 71 19 57 29 -36z"/>
<path d="M990 800 l0 -170 26 0 26 0 -4 114 c-3 123 1 127 27 26 38 -150 33
-140 65 -140 l30 0 0 170 0 170 -25 0 c-25 0 -25 0 -26 -97 l-1 -98 -26 98
-26 97 -33 0 -33 0 0 -170z"/>
<path d="M1206 853 c20 -67 34 -140 34 -170 0 -50 1 -53 25 -53 23 0 25 3 25
51 0 41 39 203 67 275 5 12 0 15 -23 12 -25 -3 -30 -9 -44 -65 -8 -34 -18 -64
-21 -68 -4 -3 -14 26 -24 65 -16 66 -19 70 -45 70 l-28 0 34 -117z"/>
<path d="M1370 835 c0 -161 11 -199 60 -210 48 -11 88 11 101 54 5 20 9 92 7
161 l-3 125 -27 3 -27 3 -3 -148 c-3 -140 -4 -148 -23 -148 -19 0 -20 8 -23
148 l-3 147 -29 0 -30 0 0 -135z"/>
<path d="M1554 948 c3 -13 10 -72 16 -133 18 -189 17 -185 55 -185 39 0 41 4
51 105 8 81 10 78 19 -28 l7 -78 36 3 37 3 17 140 c23 196 23 195 -6 195 -23
0 -24 -4 -31 -87 -12 -155 -21 -171 -29 -58 -10 134 -13 145 -41 145 -26 0
-29 -11 -41 -160 -8 -102 -18 -80 -29 65 l-7 95 -29 0 c-25 0 -29 -3 -25 -22z"/>
<path d="M1865 958 c-2 -7 -13 -76 -25 -153 -12 -77 -24 -148 -26 -157 -4 -14
1 -18 21 -18 20 0 27 6 32 30 5 26 10 30 39 30 31 0 34 -3 34 -30 0 -27 3 -30
31 -30 27 0 30 3 26 23 -3 12 -16 88 -28 170 l-23 147 -38 0 c-22 0 -40 -5
-43 -12z m59 -185 c6 -41 5 -43 -20 -43 -26 0 -26 1 -20 48 4 26 10 63 13 82
l7 35 7 -40 c3 -22 9 -59 13 -82z"/>
<path d="M2017 963 c-4 -3 -7 -80 -7 -170 l0 -163 25 0 24 0 3 118 3 117 30
-115 c29 -109 31 -115 58 -118 l27 -3 0 171 0 171 -22 -3 c-21 -3 -23 -9 -28
-88 -4 -72 -6 -80 -13 -48 -4 20 -14 59 -23 87 -13 46 -18 51 -43 51 -15 0
-31 -3 -34 -7z"/>
<path d="M2236 954 c-24 -24 -28 -52 -24 -178 4 -133 12 -151 77 -151 65 0 81
23 81 117 l0 78 -35 0 c-31 0 -35 -3 -35 -25 0 -14 5 -25 10 -25 6 0 10 -20
10 -45 0 -53 -23 -72 -47 -39 -17 23 -15 216 3 234 20 20 44 0 44 -36 0 -30 3
-34 25 -34 23 0 25 4 25 40 0 53 -27 80 -79 80 -23 0 -46 -7 -55 -16z"/>
<path d="M2400 800 l0 -170 25 0 25 0 0 170 0 170 -25 0 -25 0 0 -170z"/>
</g>
</svg>
